<?xml version="1.0" encoding="UTF-8" standalone="no"?><svg xmlns="http://www.w3.org/2000/svg" xmlns:xlink="http://www.w3.org/1999/xlink" contentScriptType="application/ecmascript" contentStyleType="text/css" height="720px" preserveAspectRatio="none" style="width:921px;height:720px;" version="1.1" viewBox="0 0 921 720" width="921px" zoomAndPan="magnify"><defs><filter height="300%" id="fzh5b8o17eohw" width="300%" x="-1" y="-1"><feGaussianBlur result="blurOut" stdDeviation="2.0"/><feColorMatrix in="blurOut" result="blurOut2" type="matrix" values="0 0 0 0 0 0 0 0 0 0 0 0 0 0 0 0 0 0 .4 0"/><feOffset dx="4.0" dy="4.0" in="blurOut2" result="blurOut3"/><feBlend in="SourceGraphic" in2="blurOut3" mode="normal"/></filter></defs><g><text fill="#000000" font-family="sans-serif" font-size="18" lengthAdjust="spacingAndGlyphs" textLength="422" x="243.2425" y="16.708">Traffic Light Controller - Component Diagram</text><!--MD5=[07074073229a58b98d86dbf75a12e332]
cluster Internet--><path d="M564.5338,76.275 C569.5129,63.3543 580.3349,65.4633 587.2458,74.2541 C593.6771,64.2059 601.1287,62.6845 609.4927,72.0379 C616.6955,59.2004 626.147,59.6238 634.7667,70.5298 C642.6692,58.019 650.8809,59.5787 658.8568,70.4543 C664.1812,61.0669 672.799,60.1182 679.9607,68.2397 C687.4769,57.1566 694.5679,55.9335 703.431,66.7994 C708.9331,54.0138 717.8316,54.9851 726.0811,63.9366 C735.4331,55.2349 743.8807,54.6892 749.9613,67.5582 C758.3858,57.2037 766.9287,57.814 773.7183,69.3337 C781.6332,61.1631 787.5028,62.91 793.3916,71.686 C801.8864,60.7397 811.582,60.9196 818.9862,72.9034 C826.4168,59.8993 834.0711,61.4823 842.3629,72.0494 C848.913,61.2067 858.6656,61.4023 863.7037,73.4586 C876.6129,63.3976 885.1753,67.325 891,81.4531 C892.2409,80.7309 893.6313,80.9743 893.6452,82.7516 C906.6185,88.9604 907.4828,100.4972 896.3118,109.1452 C909.7209,114.5239 911.4792,125.2272 901.7764,135.4138 C910.9331,141.0712 912.1059,150.6856 902.5954,157.0497 C913.8431,168.2341 914.485,177.9075 898.4636,185.071 C911.0354,195.3534 910.8586,203.6369 896.1709,211.56 C906.9523,226.0197 898.9279,236.2114 884,239.4531 C885.1799,239.3393 885.5447,239.9689 885.1771,241.0186 C880.0549,252.8097 870.5174,252.5335 862.9487,243.6488 C856.9541,252.6971 846.305,254.3984 840.4837,243.454 C832.3386,254.4817 824.3874,255.8777 816.6919,243.0064 C811.3,254.5925 803.6768,255.2587 795.5424,245.7568 C788.4158,256.3591 779.3208,258.5723 771.4106,246.5943 C765.7851,259.4315 753.8685,258.9227 747.322,247.5091 C741.2795,258.0732 734.3038,258.505 727.0946,248.6658 C716.4638,258.3737 708.742,257.3625 701.9916,244.374 C695.6702,254.0309 685.5368,255.7065 679.5751,243.9966 C673.5362,254.4638 662.7977,253.8953 656.8753,243.8676 C649.6869,257.144 641.1157,257.7797 632.44,245.2774 C625.7762,255.2547 616.3936,253.4795 612.8005,242.4119 C605.6689,253.3923 594.1869,251.3863 588.3468,240.938 C575.4112,253.2494 560.6436,251.7534 556,232.4531 C558.986,232.0584 560.2361,234.2309 558.9105,236.754 C543.9803,229.0118 541.3454,220.3553 553.6272,207.6699 C541.9359,201.0177 542.1115,192.818 551.3343,184.1287 C538.8457,178.8306 536.8033,168.4519 548.0166,159.9072 C536.9719,149.8168 539.0357,142.1152 550.4601,134.157 C540.5876,124.7843 543.4789,113.7386 556.0122,109.3885 C540.7475,94.5245 541.5997,81.9834 563,74.4531 C564.2159,74.4013 564.7921,75.0856 564.5338,76.275 " fill="#FFFFFF" filter="url(#fzh5b8o17eohw)" style="stroke: #000000; stroke-width: 1.5;"/><text fill="#000000" font-family="sans-serif" font-size="14" font-weight="bold" lengthAdjust="spacingAndGlyphs" textLength="66" x="690.5" y="92.4482">Internet</text><!--MD5=[bb3e07374f1ed5e7d827a212a2b35c48]
cluster jackhiggins.ie--><polygon fill="#FFFFFF" filter="url(#fzh5b8o17eohw)" points="748,131.9531,865,131.9531,872,154.25,875,154.25,875,200.9531,748,200.9531,748,131.9531" style="stroke: #000000; stroke-width: 1.5;"/><line style="stroke: #000000; stroke-width: 1.5;" x1="748" x2="872" y1="154.25" y2="154.25"/><text fill="#000000" font-family="sans-serif" font-size="14" font-weight="bold" lengthAdjust="spacingAndGlyphs" textLength="111" x="752" y="146.9482">jackhiggins.ie</text><!--MD5=[ff0e712857663c0112505e6ec4d7718c]
cluster GitHub Pages--><polygon fill="#FFFFFF" filter="url(#fzh5b8o17eohw)" points="572,109.4531,687,109.4531,694,131.75,724,131.75,724,223.4531,572,223.4531,572,109.4531" style="stroke: #000000; stroke-width: 1.5;"/><line style="stroke: #000000; stroke-width: 1.5;" x1="572" x2="694" y1="131.75" y2="131.75"/><text fill="#000000" font-family="sans-serif" font-size="14" font-weight="bold" lengthAdjust="spacingAndGlyphs" textLength="109" x="576" y="124.4482">GitHub Pages</text><!--MD5=[0a301fc9cb836441c8580750e3ade370]
cluster LAN--><polygon fill="#FFFFFF" filter="url(#fzh5b8o17eohw)" points="16,26.9531,53,26.9531,60,49.25,524,49.25,524,713.4531,16,713.4531,16,26.9531" style="stroke: #000000; stroke-width: 1.5;"/><line style="stroke: #000000; stroke-width: 1.5;" x1="16" x2="60" y1="49.25" y2="49.25"/><text fill="#000000" font-family="sans-serif" font-size="14" font-weight="bold" lengthAdjust="spacingAndGlyphs" textLength="31" x="20" y="41.9482">LAN</text><!--MD5=[406b65fecc21e832f7a9b6ebadc6dce1]
cluster Client--><polygon fill="#FFFFFF" filter="url(#fzh5b8o17eohw)" points="81,79.9531,91,69.9531,383,69.9531,383,228.9531,373,238.9531,81,238.9531,81,79.9531" style="stroke: #000000; stroke-width: 1.5;"/><line style="stroke: #000000; stroke-width: 1.5;" x1="373" x2="383" y1="79.9531" y2="69.9531"/><line style="stroke: #000000; stroke-width: 1.5;" x1="81" x2="373" y1="79.9531" y2="79.9531"/><line style="stroke: #000000; stroke-width: 1.5;" x1="373" x2="373" y1="79.9531" y2="238.9531"/><text fill="#000000" font-family="sans-serif" font-size="14" font-weight="bold" lengthAdjust="spacingAndGlyphs" textLength="47" x="204.5" y="95.9482">Client</text><!--MD5=[5ac63d44feee5c99d210ab1ba08435b1]
cluster Webapp--><polygon fill="#FFFFFF" filter="url(#fzh5b8o17eohw)" points="105,117.9531,175,117.9531,182,140.25,359,140.25,359,214.9531,105,214.9531,105,117.9531" style="stroke: #000000; stroke-width: 1.5;"/><line style="stroke: #000000; stroke-width: 1.5;" x1="105" x2="182" y1="140.25" y2="140.25"/><text fill="#000000" font-family="sans-serif" font-size="14" font-weight="bold" lengthAdjust="spacingAndGlyphs" textLength="64" x="109" y="132.9482">Webapp</text><!--MD5=[2494560df4fd648f2d2edfac59fde185]
cluster Traffic Light--><polygon fill="#FFFFFF" filter="url(#fzh5b8o17eohw)" points="40,271.4531,149,271.4531,156,293.75,500,293.75,500,689.4531,40,689.4531,40,271.4531" style="stroke: #000000; stroke-width: 1.5;"/><line style="stroke: #000000; stroke-width: 1.5;" x1="40" x2="156" y1="293.75" y2="293.75"/><text fill="#000000" font-family="sans-serif" font-size="14" font-weight="bold" lengthAdjust="spacingAndGlyphs" textLength="103" x="44" y="286.4482">Traffic Light</text><!--MD5=[ae057a94bca99b6bb21ace762607fe8f]
cluster ESP8266--><polygon fill="#FFFFFF" filter="url(#fzh5b8o17eohw)" points="64,324.4531,74,314.4531,476,314.4531,476,556.4531,466,566.4531,64,566.4531,64,324.4531" style="stroke: #000000; stroke-width: 1.5;"/><line style="stroke: #000000; stroke-width: 1.5;" x1="466" x2="476" y1="324.4531" y2="314.4531"/><line style="stroke: #000000; stroke-width: 1.5;" x1="64" x2="466" y1="324.4531" y2="324.4531"/><line style="stroke: #000000; stroke-width: 1.5;" x1="466" x2="466" y1="324.4531" y2="566.4531"/><text fill="#000000" font-family="sans-serif" font-size="14" font-weight="bold" lengthAdjust="spacingAndGlyphs" textLength="69" x="231.5" y="340.4482">ESP8266</text><!--MD5=[60dbf8e8a50666c70dad943d5e023697]
entity DNS--><ellipse cx="773" cy="175.9531" fill="#FEFECE" filter="url(#fzh5b8o17eohw)" rx="8" ry="8" style="stroke: #A80036; stroke-width: 1.5;"/><text fill="#000000" font-family="sans-serif" font-size="14" lengthAdjust="spacingAndGlyphs" textLength="92" x="727" y="205.9482">DNS Records</text><!--MD5=[e3c0dea3f34184d6d45613ceb9619dce]
entity Hosted--><rect fill="#FEFECE" filter="url(#fzh5b8o17eohw)" height="62.5938" style="stroke: #A80036; stroke-width: 1.5;" width="119" x="588.5" y="144.4531"/><rect fill="#FEFECE" height="10" style="stroke: #A80036; stroke-width: 1.5;" width="15" x="687.5" y="149.4531"/><rect fill="#FEFECE" height="2" style="stroke: #A80036; stroke-width: 1.5;" width="4" x="685.5" y="151.4531"/><rect fill="#FEFECE" height="2" style="stroke: #A80036; stroke-width: 1.5;" width="4" x="685.5" y="155.4531"/><text fill="#000000" font-family="sans-serif" font-size="14" lengthAdjust="spacingAndGlyphs" textLength="51" x="603.5" y="177.4482">Hosted</text><text fill="#000000" font-family="sans-serif" font-size="14" lengthAdjust="spacingAndGlyphs" textLength="79" x="603.5" y="193.7451">Static Files</text><!--MD5=[efde4a7e4beba314deda2590c3ef5878]
entity WebState--><rect fill="#FEFECE" filter="url(#fzh5b8o17eohw)" height="46.2969" style="stroke: #A80036; stroke-width: 1.5;" width="80" x="174" y="152.9531"/><rect fill="#FEFECE" height="10" style="stroke: #A80036; stroke-width: 1.5;" width="15" x="234" y="157.9531"/><rect fill="#FEFECE" height="2" style="stroke: #A80036; stroke-width: 1.5;" width="4" x="232" y="159.9531"/><rect fill="#FEFECE" height="2" style="stroke: #A80036; stroke-width: 1.5;" width="4" x="232" y="163.9531"/><text fill="#000000" font-family="sans-serif" font-size="14" lengthAdjust="spacingAndGlyphs" textLength="40" x="189" y="185.9482">State</text><!--MD5=[c42ed81cef7fdd2e33758127945b9a5b]
entity UI--><rect fill="#FEFECE" filter="url(#fzh5b8o17eohw)" height="46.2969" style="stroke: #A80036; stroke-width: 1.5;" width="53" x="289.5" y="152.9531"/><rect fill="#FEFECE" height="10" style="stroke: #A80036; stroke-width: 1.5;" width="15" x="322.5" y="157.9531"/><rect fill="#FEFECE" height="2" style="stroke: #A80036; stroke-width: 1.5;" width="4" x="320.5" y="159.9531"/><rect fill="#FEFECE" height="2" style="stroke: #A80036; stroke-width: 1.5;" width="4" x="320.5" y="163.9531"/><text fill="#000000" font-family="sans-serif" font-size="14" lengthAdjust="spacingAndGlyphs" textLength="13" x="304.5" y="185.9482">UI</text><!--MD5=[f6320dde944c12969a5f5a44a8bc5dd1]
entity WSC--><ellipse cx="130" cy="175.9531" fill="#FEFECE" filter="url(#fzh5b8o17eohw)" rx="8" ry="8" style="stroke: #A80036; stroke-width: 1.5;"/><text fill="#000000" font-family="sans-serif" font-size="14" lengthAdjust="spacingAndGlyphs" textLength="84" x="88" y="205.9482">WebSocket</text><text fill="#000000" font-family="sans-serif" font-size="14" lengthAdjust="spacingAndGlyphs" textLength="43" x="88" y="222.2451">Client</text><!--MD5=[9cacda53069815fa726b097df65cccc8]
entity Sensors--><rect fill="#FEFECE" filter="url(#fzh5b8o17eohw)" height="46.2969" style="stroke: #A80036; stroke-width: 1.5;" width="96" x="68" y="618.9531"/><rect fill="#FEFECE" height="10" style="stroke: #A80036; stroke-width: 1.5;" width="15" x="144" y="623.9531"/><rect fill="#FEFECE" height="2" style="stroke: #A80036; stroke-width: 1.5;" width="4" x="142" y="625.9531"/><rect fill="#FEFECE" height="2" style="stroke: #A80036; stroke-width: 1.5;" width="4" x="142" y="629.9531"/><text fill="#000000" font-family="sans-serif" font-size="14" lengthAdjust="spacingAndGlyphs" textLength="56" x="83" y="651.9482">Sensors</text><!--MD5=[cbe8d73be6648713305b4081b11e0a43]
entity Relay--><rect fill="#FEFECE" filter="url(#fzh5b8o17eohw)" height="62.5938" style="stroke: #A80036; stroke-width: 1.5;" width="121" x="199.5" y="610.4531"/><rect fill="#FEFECE" height="10" style="stroke: #A80036; stroke-width: 1.5;" width="15" x="300.5" y="615.4531"/><rect fill="#FEFECE" height="2" style="stroke: #A80036; stroke-width: 1.5;" width="4" x="298.5" y="617.4531"/><rect fill="#FEFECE" height="2" style="stroke: #A80036; stroke-width: 1.5;" width="4" x="298.5" y="621.4531"/><text fill="#000000" font-family="sans-serif" font-size="14" lengthAdjust="spacingAndGlyphs" textLength="81" x="214.5" y="643.4482">Solid-State</text><text fill="#000000" font-family="sans-serif" font-size="14" lengthAdjust="spacingAndGlyphs" textLength="39" x="214.5" y="659.7451">Relay</text><!--MD5=[b2b61acb382a4ec904e15c6493fd2db9]
entity Timing--><rect fill="#FEFECE" filter="url(#fzh5b8o17eohw)" height="46.2969" style="stroke: #A80036; stroke-width: 1.5;" width="131" x="328.5" y="504.4531"/><rect fill="#FEFECE" height="10" style="stroke: #A80036; stroke-width: 1.5;" width="15" x="439.5" y="509.4531"/><rect fill="#FEFECE" height="2" style="stroke: #A80036; stroke-width: 1.5;" width="4" x="437.5" y="511.4531"/><rect fill="#FEFECE" height="2" style="stroke: #A80036; stroke-width: 1.5;" width="4" x="437.5" y="515.4531"/><text fill="#000000" font-family="sans-serif" font-size="14" lengthAdjust="spacingAndGlyphs" textLength="91" x="343.5" y="537.4482">Timing Logic</text><!--MD5=[735d0a6200122372155dce51b2d5f5fc]
entity IO--><rect fill="#FEFECE" filter="url(#fzh5b8o17eohw)" height="46.2969" style="stroke: #A80036; stroke-width: 1.5;" width="98" x="80" y="504.4531"/><rect fill="#FEFECE" height="10" style="stroke: #A80036; stroke-width: 1.5;" width="15" x="158" y="509.4531"/><rect fill="#FEFECE" height="2" style="stroke: #A80036; stroke-width: 1.5;" width="4" x="156" y="511.4531"/><rect fill="#FEFECE" height="2" style="stroke: #A80036; stroke-width: 1.5;" width="4" x="156" y="515.4531"/><text fill="#000000" font-family="sans-serif" font-size="14" lengthAdjust="spacingAndGlyphs" textLength="58" x="95" y="537.4482">I/O logic</text><!--MD5=[5c691934b5633fdd3b98f008c74cebb5]
entity State--><rect fill="#FEFECE" filter="url(#fzh5b8o17eohw)" height="46.2969" style="stroke: #A80036; stroke-width: 1.5;" width="80" x="213" y="504.4531"/><rect fill="#FEFECE" height="10" style="stroke: #A80036; stroke-width: 1.5;" width="15" x="273" y="509.4531"/><rect fill="#FEFECE" height="2" style="stroke: #A80036; stroke-width: 1.5;" width="4" x="271" y="511.4531"/><rect fill="#FEFECE" height="2" style="stroke: #A80036; stroke-width: 1.5;" width="4" x="271" y="515.4531"/><text fill="#000000" font-family="sans-serif" font-size="14" lengthAdjust="spacingAndGlyphs" textLength="40" x="228" y="537.4482">State</text><!--MD5=[bf7de444024a67144b26787db2e7ac3f]
entity WSS--><ellipse cx="130" cy="399.4531" fill="#FEFECE" filter="url(#fzh5b8o17eohw)" rx="8" ry="8" style="stroke: #A80036; stroke-width: 1.5;"/><text fill="#000000" font-family="sans-serif" font-size="14" lengthAdjust="spacingAndGlyphs" textLength="84" x="88" y="429.4482">WebSocket</text><text fill="#000000" font-family="sans-serif" font-size="14" lengthAdjust="spacingAndGlyphs" textLength="47" x="88" y="445.7451">Server</text><!--MD5=[bd5f618b12816bd4b75416c1e6e531a6]
entity REST--><ellipse cx="253" cy="399.4531" fill="#FEFECE" filter="url(#fzh5b8o17eohw)" rx="8" ry="8" style="stroke: #A80036; stroke-width: 1.5;"/><text fill="#000000" font-family="sans-serif" font-size="14" lengthAdjust="spacingAndGlyphs" textLength="64" x="221" y="429.4482">REST API</text><text fill="#000000" font-family="sans-serif" font-size="14" lengthAdjust="spacingAndGlyphs" textLength="47" x="221" y="445.7451">Server</text><!--MD5=[96f7e1299d4a43069e6ed32352fcac20]
entity HTTP--><ellipse cx="383" cy="399.4531" fill="#FEFECE" filter="url(#fzh5b8o17eohw)" rx="8" ry="8" style="stroke: #A80036; stroke-width: 1.5;"/><text fill="#000000" font-family="sans-serif" font-size="14" lengthAdjust="spacingAndGlyphs" textLength="81" x="342.5" y="429.4482">HTTP Proxy</text><!--MD5=[e8e4fc958f2b3c53b91dfa69ac8609bd]
link WebState to UI--><path d="M254.242,175.9531 C264.24,175.9531 274.238,175.9531 284.235,175.9531 " fill="none" id="WebState-to-UI" style="stroke: #A80036; stroke-width: 1.0;"/><polygon fill="#A80036" points="289.463,175.9531,280.463,171.9531,284.463,175.9531,280.463,179.9531,289.463,175.9531" style="stroke: #A80036; stroke-width: 1.0;"/><!--MD5=[0a9399f739cddb0f110df0e5e613c0c4]
reverse link IO to Sensors--><path d="M125.822,555.9511 C123.591,575.2621 120.645,600.7581 118.563,618.7731 " fill="none" id="IO-backto-Sensors" style="stroke: #A80036; stroke-width: 1.0;"/><polygon fill="#A80036" points="126.432,550.6791,121.4248,559.1602,125.8577,555.646,129.3719,560.079,126.432,550.6791" style="stroke: #A80036; stroke-width: 1.0;"/><!--MD5=[67ec34489952788b540e3bce43ade498]
reverse link DNS to HTTP--><path d="M765.853,194.5491 C757.941,212.0791 743.659,238.7281 724,255.4531 C614.229,348.8401 434.741,388.4091 392.232,396.7321 " fill="none" id="DNS-backto-HTTP" style="stroke: #A80036; stroke-width: 1.0;"/><path d="M760.9608,184.4845 A9,9 0 0 0 776.511 191.1396" fill="none" style="stroke: #A80036; stroke-width: 1.5;"/><!--MD5=[8c98daa16e6f1c8c910feb6521878d5c]
link DNS to Hosted--><path d="M763.799,175.9531 C746.813,175.9531 729.827,175.9531 712.842,175.9531 " fill="none" id="DNS-to-Hosted" style="stroke: #A80036; stroke-width: 1.0;"/><polygon fill="#A80036" points="707.57,175.9531,716.57,179.9531,712.57,175.9531,716.57,171.9531,707.57,175.9531" style="stroke: #A80036; stroke-width: 1.0;"/><!--MD5=[2883f125486985d2ad15b658935ae5a8]
link Timing to IO--><path d="M360.333,504.3991 C341.564,492.9491 317.243,480.3301 293.5,474.4531 C258.555,465.8031 247.07,464.4081 212.5,474.4531 C193.812,479.8831 175.304,490.8941 160.48,501.4801 " fill="none" id="Timing-to-IO" style="stroke: #A80036; stroke-width: 1.0;"/><polygon fill="#A80036" points="156.399,504.4501,166.0294,502.3875,160.4414,501.5076,161.3214,495.9196,156.399,504.4501" style="stroke: #A80036; stroke-width: 1.0;"/><!--MD5=[3b4ad2c9459e52db1a39796d47455e52]
link State to Timing--><path d="M293.207,527.4531 C303.154,527.4531 313.1,527.4531 323.047,527.4531 " fill="none" id="State-to-Timing" style="stroke: #A80036; stroke-width: 1.0;"/><polygon fill="#A80036" points="328.248,527.4531,319.248,523.4531,323.248,527.4531,319.248,531.4531,328.248,527.4531" style="stroke: #A80036; stroke-width: 1.0;"/><!--MD5=[35bb29bae0876ee76355b3d50b5b1d30]
reverse link WSS to IO--><path d="M129.893,413.9911 C129.721,435.6231 129.383,478.1961 129.176,504.3071 " fill="none" id="WSS-backto-IO" style="stroke: #A80036; stroke-width: 1.0;"/><polygon fill="#A80036" points="129.934,408.7201,125.8621,417.6878,129.894,413.72,133.8619,417.7518,129.934,408.7201" style="stroke: #A80036; stroke-width: 1.0;"/><!--MD5=[a59e9609555d4c790f8ec85119435ad4]
link REST to State--><path d="M253,408.7201 C253,426.7601 253,470.3391 253,499.1161 " fill="none" id="REST-to-State" style="stroke: #A80036; stroke-width: 1.0;"/><polygon fill="#A80036" points="253,504.3071,257,495.3071,253,499.3071,249,495.3071,253,504.3071" style="stroke: #A80036; stroke-width: 1.0;"/><!--MD5=[70c52444e4b7e3f28039d57fdd0218d9]
link REST to IO--><path d="M244.864,408.7201 C226.816,427.0591 182.793,471.7931 154.505,500.5361 " fill="none" id="REST-to-IO" style="stroke: #A80036; stroke-width: 1.0;"/><polygon fill="#A80036" points="150.794,504.3071,159.9575,500.6974,154.3008,500.7431,154.2551,495.0865,150.794,504.3071" style="stroke: #A80036; stroke-width: 1.0;"/><!--MD5=[df31f13f10d3c7defe1022bb3515409b]
link WSC to WSS--><path d="M130,185.0991 C130,216.9781 130,333.7721 130,379.7131 " fill="none" id="WSC-to-WSS" style="stroke: #A80036; stroke-width: 1.0;"/><path d="M138.4572,386.9179 A9,9 0 0 0 121.5428 386.9179" fill="none" style="stroke: #A80036; stroke-width: 1.5;"/><!--MD5=[8dba2fcc45c3fc1ec7b3692624c92b51]
link WSC to WebState--><path d="M139.188,175.9531 C149.059,175.9531 158.93,175.9531 168.802,175.9531 " fill="none" id="WSC-to-WebState" style="stroke: #A80036; stroke-width: 1.0;"/><polygon fill="#A80036" points="173.964,175.9531,164.964,171.9531,168.964,175.9531,164.964,179.9531,173.964,175.9531" style="stroke: #A80036; stroke-width: 1.0;"/><!--MD5=[190de65b69e506806481a331009239b8]
link UI to HTTP--><path d="M322.669,199.0011 C335.921,242.8111 365.337,340.0611 377.536,380.3881 " fill="none" id="UI-to-HTTP" style="stroke: #A80036; stroke-width: 1.0;"/><path d="M387.6963,384.7678 A9,9 0 0 0 371.5058 389.6636" fill="none" style="stroke: #A80036; stroke-width: 1.5;"/><!--MD5=[7f51b2edda41ab19f3d285a93cfb71d5]
link IO to Relay--><path d="M154.881,550.6791 C173.554,566.7151 199.106,588.6591 220.343,606.8961 " fill="none" id="IO-to-Relay" style="stroke: #A80036; stroke-width: 1.0;"/><polygon fill="#A80036" points="224.255,610.2561,220.0331,601.358,220.4617,606.9986,214.8212,607.4273,224.255,610.2561" style="stroke: #A80036; stroke-width: 1.0;"/><!--MD5=[da6cb8c841a39d014e808e05eff27691]
link UI to REST--><path d="M309.729,199.0011 C297.269,242.8111 269.608,340.0611 258.138,380.3881 " fill="none" id="UI-to-REST" style="stroke: #A80036; stroke-width: 1.0;"/><path d="M264.3347,389.515 A9,9 0 0 0 248.0655 384.8877" fill="none" style="stroke: #A80036; stroke-width: 1.5;"/><!--MD5=[425eb5d8796312346fa4aca6b6990817]
@startuml
title Traffic Light Controller - Component Diagram



cloud Internet {

    package "jackhiggins.ie" {
        interface "DNS Records" as DNS
    }

    package "GitHub Pages" {
        component [Hosted\nStatic Files] as Hosted
    }

}

package "LAN" {
    
    node "Client" {
        package "Webapp" {
            [State] as WebState
            [UI]
            interface "WebSocket\nClient" as WSC
        }
    }
    
    package "Traffic Light" {
        node "ESP8266" {
            [Timing Logic] as Timing
            [I/O logic] as IO
            [State]
            
            interface "WebSocket\nServer" as WSS
            interface "REST API\nServer" as REST
            interface "HTTP Proxy" as HTTP
        }
        
        [Sensors]
        [Solid-State\nRelay] as Relay
    }
}

WebState -> UI
Sensors -up-> IO
HTTP -up-( DNS
DNS -> Hosted
Timing -> IO
State -> Timing
IO -up-> WSS
REST -down-> State
REST -> IO
WSC -down-( WSS
WSC -> WebState
UI -( HTTP
IO -down-> Relay
UI -down-( REST
@enduml

PlantUML version 1.2020.20beta13(Unknown compile time)
(GPL source distribution)
Java Runtime: Java(TM) SE Runtime Environment
JVM: Java HotSpot(TM) 64-Bit Server VM
Default Encoding: UTF-8
Language: en
Country: US
--></g></svg>